<svg width="160" height="27" viewBox="0 0 160 27" fill="none" xmlns="http://www.w3.org/2000/svg">
<path d="M7.04395 11.7715H1.63867L1.6123 10.4004H6.26611C7.21533 10.4004 8.02393 10.2642 8.69189 9.9917C9.35986 9.71924 9.86523 9.31494 10.208 8.77881C10.5596 8.23389 10.7354 7.56592 10.7354 6.7749C10.7354 5.96631 10.564 5.29834 10.2212 4.771C9.87842 4.23486 9.36426 3.83936 8.67871 3.58447C7.99316 3.32959 7.13184 3.20215 6.09473 3.20215H2.06055V21H0.438965V1.80469H6.09473C7.07031 1.80469 7.94482 1.90137 8.71826 2.09473C9.4917 2.28809 10.1509 2.59131 10.6958 3.00439C11.2407 3.41748 11.6538 3.94043 11.9351 4.57324C12.2251 5.19727 12.3701 5.94434 12.3701 6.81445C12.3701 7.60547 12.1943 8.32178 11.8428 8.96338C11.4912 9.59619 10.9946 10.1147 10.353 10.519C9.72021 10.9146 8.95996 11.1606 8.07227 11.2573L7.04395 11.7715ZM6.92529 21H1.12451L1.95508 19.6157H6.92529C7.87451 19.6157 8.68311 19.4575 9.35107 19.1411C10.0278 18.8159 10.5464 18.3545 10.9067 17.7568C11.2671 17.1592 11.4473 16.4473 11.4473 15.6211C11.4473 14.8916 11.2891 14.2368 10.9727 13.6567C10.6562 13.0767 10.1729 12.6196 9.52246 12.2856C8.87207 11.9429 8.0459 11.7715 7.04395 11.7715H3.68213L3.7085 10.4004H8.46777L8.75781 10.8882C9.61914 10.9761 10.3706 11.2441 11.0122 11.6924C11.6626 12.1318 12.1636 12.6899 12.5151 13.3667C12.8755 14.0435 13.0557 14.7861 13.0557 15.5947C13.0557 16.7549 12.7964 17.7393 12.2778 18.5479C11.7681 19.3477 11.0518 19.9585 10.1289 20.3804C9.21484 20.7935 8.14697 21 6.92529 21ZM25.7646 17.7041V6.73535H27.3467V21H25.8306L25.7646 17.7041ZM26.0547 15.0674L26.8721 15.041C26.8721 15.9375 26.7666 16.7637 26.5557 17.5195C26.3447 18.2754 26.0151 18.9346 25.5669 19.4971C25.1187 20.0596 24.5386 20.4946 23.8267 20.8022C23.1147 21.1099 22.2578 21.2637 21.2559 21.2637C20.5615 21.2637 19.9243 21.167 19.3442 20.9736C18.7729 20.7715 18.2808 20.4551 17.8677 20.0244C17.4546 19.5938 17.1338 19.0356 16.9053 18.3501C16.6855 17.6646 16.5757 16.834 16.5757 15.8584V6.73535H18.1445V15.8848C18.1445 16.6494 18.228 17.2866 18.395 17.7964C18.5708 18.3062 18.8081 18.7148 19.1069 19.0225C19.4146 19.3301 19.7661 19.5498 20.1616 19.6816C20.5571 19.8135 20.9834 19.8794 21.4404 19.8794C22.6006 19.8794 23.5146 19.6553 24.1826 19.207C24.8594 18.7588 25.3384 18.1699 25.6196 17.4404C25.9097 16.7021 26.0547 15.9111 26.0547 15.0674ZM40.7412 18.2314V0.75H42.3232V21H40.8467L40.7412 18.2314ZM30.8403 14.0127V13.7358C30.8403 12.6284 30.9678 11.6309 31.2227 10.7432C31.4775 9.84668 31.8423 9.08203 32.3169 8.44922C32.8003 7.80762 33.3804 7.31982 34.0571 6.98584C34.7339 6.64307 35.4985 6.47168 36.3511 6.47168C37.186 6.47168 37.9243 6.60791 38.5659 6.88037C39.2075 7.15283 39.7568 7.54395 40.2139 8.05371C40.6797 8.56348 41.0532 9.16992 41.3345 9.87305C41.6245 10.5762 41.8354 11.3584 41.9673 12.2197V15.7397C41.8618 16.5483 41.6685 17.291 41.3872 17.9678C41.106 18.6357 40.7324 19.2202 40.2666 19.7212C39.8008 20.2134 39.2383 20.5957 38.5791 20.8682C37.9287 21.1318 37.1772 21.2637 36.3247 21.2637C35.481 21.2637 34.7207 21.0879 34.0439 20.7363C33.3672 20.3848 32.7915 19.8882 32.3169 19.2466C31.8423 18.5962 31.4775 17.8271 31.2227 16.9395C30.9678 16.0518 30.8403 15.0762 30.8403 14.0127ZM32.4224 13.7358V14.0127C32.4224 14.8477 32.5059 15.6211 32.6729 16.333C32.8398 17.0449 33.0947 17.6646 33.4375 18.1919C33.7803 18.7192 34.2153 19.1323 34.7427 19.4312C35.27 19.73 35.894 19.8794 36.6147 19.8794C37.52 19.8794 38.2803 19.708 38.8955 19.3652C39.5107 19.0137 40.0029 18.5522 40.3721 17.981C40.7412 17.4009 41.0093 16.7681 41.1763 16.0825V11.9824C41.0708 11.5166 40.917 11.042 40.7148 10.5586C40.5127 10.0752 40.2358 9.63135 39.8843 9.22705C39.5415 8.81396 39.1021 8.48438 38.5659 8.23828C38.0386 7.9834 37.397 7.85596 36.6411 7.85596C35.9116 7.85596 35.2832 8.00537 34.7559 8.3042C34.2285 8.60303 33.7891 9.02051 33.4375 9.55664C33.0947 10.084 32.8398 10.7036 32.6729 11.4155C32.5059 12.1274 32.4224 12.9009 32.4224 13.7358ZM55.8628 6.73535H57.3262V20.7495C57.3262 21.9888 57.0889 23.0522 56.6143 23.9399C56.1484 24.8276 55.4849 25.5088 54.6235 25.9834C53.771 26.458 52.7646 26.6953 51.6045 26.6953C51.0156 26.6953 50.4092 26.603 49.7852 26.4185C49.1699 26.2427 48.5854 25.9702 48.0317 25.6011C47.4868 25.2407 47.021 24.7925 46.6343 24.2563L47.5176 23.2939C48.0977 23.9971 48.7173 24.5112 49.3765 24.8364C50.0356 25.1704 50.7476 25.3374 51.5122 25.3374C52.4175 25.3374 53.1821 25.1572 53.8062 24.7969C54.439 24.4365 54.918 23.918 55.2432 23.2412C55.5771 22.5645 55.7441 21.7515 55.7441 20.8022V9.87305L55.8628 6.73535ZM45.8433 14.0127V13.7358C45.8433 12.6284 45.9663 11.6309 46.2124 10.7432C46.4673 9.84668 46.832 9.08203 47.3066 8.44922C47.7812 7.80762 48.3569 7.31982 49.0337 6.98584C49.7192 6.64307 50.4927 6.47168 51.354 6.47168C52.1802 6.47168 52.9141 6.60791 53.5557 6.88037C54.1973 7.15283 54.751 7.54395 55.2168 8.05371C55.6826 8.56348 56.0562 9.16992 56.3374 9.87305C56.6274 10.5762 56.8384 11.3584 56.9702 12.2197V15.7397C56.8647 16.5483 56.6714 17.291 56.3901 17.9678C56.1089 18.6357 55.7354 19.2202 55.2695 19.7212C54.8037 20.2134 54.2412 20.5957 53.582 20.8682C52.9316 21.1318 52.1802 21.2637 51.3276 21.2637C50.4751 21.2637 49.7104 21.0879 49.0337 20.7363C48.3569 20.3848 47.7812 19.8882 47.3066 19.2466C46.832 18.5962 46.4673 17.8271 46.2124 16.9395C45.9663 16.0518 45.8433 15.0762 45.8433 14.0127ZM47.4253 13.7358V14.0127C47.4253 14.8477 47.5088 15.6211 47.6758 16.333C47.8428 17.0449 48.0977 17.6646 48.4404 18.1919C48.7832 18.7192 49.2183 19.1323 49.7456 19.4312C50.2729 19.73 50.8926 19.8794 51.6045 19.8794C52.5098 19.8794 53.27 19.708 53.8853 19.3652C54.5005 19.0137 54.9883 18.5522 55.3486 17.981C55.709 17.4009 55.9727 16.7681 56.1396 16.0825V11.9824C56.043 11.5166 55.8936 11.042 55.6914 10.5586C55.498 10.0752 55.2256 9.63135 54.874 9.22705C54.5312 8.81396 54.0918 8.48438 53.5557 8.23828C53.0283 7.9834 52.3867 7.85596 51.6309 7.85596C50.9102 7.85596 50.2817 8.00537 49.7456 8.3042C49.2183 8.60303 48.7832 9.02051 48.4404 9.55664C48.0977 10.084 47.8428 10.7036 47.6758 11.4155C47.5088 12.1274 47.4253 12.9009 47.4253 13.7358ZM66.9634 21.2637C66.0317 21.2637 65.1748 21.0923 64.3926 20.7495C63.6191 20.4067 62.9424 19.9233 62.3623 19.2993C61.791 18.6753 61.3472 17.937 61.0308 17.0845C60.7231 16.2231 60.5693 15.2827 60.5693 14.2632V13.6963C60.5693 12.5977 60.7319 11.6045 61.0571 10.7168C61.3823 9.8291 61.8306 9.06885 62.4019 8.43604C62.9731 7.80322 63.6235 7.31982 64.353 6.98584C65.0913 6.64307 65.8647 6.47168 66.6733 6.47168C67.5786 6.47168 68.3828 6.63428 69.0859 6.95947C69.7891 7.27588 70.3779 7.72852 70.8525 8.31738C71.3359 8.89746 71.7007 9.5874 71.9468 10.3872C72.1929 11.1782 72.3159 12.0527 72.3159 13.0107V13.9731H61.5186V12.6284H70.7471V12.4438C70.7295 11.644 70.5669 10.897 70.2593 10.2026C69.9604 9.49951 69.5122 8.92822 68.9146 8.48877C68.3169 8.04932 67.5698 7.82959 66.6733 7.82959C66.0054 7.82959 65.3901 7.97021 64.8276 8.25146C64.2739 8.53271 63.7949 8.93701 63.3906 9.46436C62.9951 9.98291 62.6875 10.6025 62.4678 11.3232C62.2568 12.0352 62.1514 12.8262 62.1514 13.6963V14.2632C62.1514 15.0542 62.2656 15.7925 62.4941 16.478C62.7314 17.1548 63.0654 17.7524 63.4961 18.271C63.9355 18.7896 64.4541 19.1938 65.0518 19.4839C65.6494 19.7739 66.3086 19.9189 67.0293 19.9189C67.873 19.9189 68.6201 19.7651 69.2705 19.4575C69.9209 19.1411 70.5054 18.6445 71.0239 17.9678L72.0127 18.7324C71.7051 19.1895 71.3184 19.6113 70.8525 19.998C70.3955 20.3848 69.8462 20.6924 69.2046 20.9209C68.563 21.1494 67.8159 21.2637 66.9634 21.2637ZM80.8193 6.73535V8.02734H73.6738V6.73535H80.8193ZM76.2974 3.07031H77.8662V17.5327C77.8662 18.1919 77.9541 18.6885 78.1299 19.0225C78.3057 19.3564 78.5342 19.5806 78.8154 19.6948C79.0967 19.8091 79.3999 19.8662 79.7251 19.8662C79.9624 19.8662 80.1909 19.853 80.4106 19.8267C80.6304 19.7915 80.8281 19.7563 81.0039 19.7212L81.0698 21.0527C80.8765 21.1143 80.626 21.1626 80.3184 21.1978C80.0107 21.2417 79.7031 21.2637 79.3955 21.2637C78.7891 21.2637 78.2529 21.1538 77.7871 20.9341C77.3213 20.7056 76.9565 20.3188 76.6929 19.7739C76.4292 19.2202 76.2974 18.4688 76.2974 17.5195V3.07031Z" fill="white"/>
<path d="M91.353 12.8394H86.4092L86.3828 9.80713H90.3906C91.1113 9.80713 91.687 9.72803 92.1177 9.56982C92.5483 9.40283 92.8604 9.16113 93.0537 8.84473C93.2559 8.52832 93.3569 8.13281 93.3569 7.6582C93.3569 7.11328 93.2559 6.67383 93.0537 6.33984C92.8516 6.00586 92.5308 5.76416 92.0913 5.61475C91.6606 5.45654 91.1025 5.37744 90.417 5.37744H88.1494V21H83.522V1.80469H90.417C91.6035 1.80469 92.6626 1.91455 93.5942 2.13428C94.5259 2.34521 95.3169 2.67041 95.9673 3.10986C96.6265 3.54932 97.1274 4.10303 97.4702 4.771C97.813 5.43018 97.9844 6.20801 97.9844 7.10449C97.9844 7.88672 97.8174 8.62061 97.4834 9.30615C97.1494 9.9917 96.5913 10.5498 95.8091 10.9805C95.0356 11.4023 93.9766 11.6221 92.6318 11.6396L91.353 12.8394ZM91.1685 21H85.2886L86.8706 17.4404H91.1685C91.8013 17.4404 92.3066 17.3438 92.6846 17.1504C93.0713 16.9482 93.3481 16.6846 93.5151 16.3594C93.6909 16.0254 93.7788 15.6562 93.7788 15.252C93.7788 14.7598 93.6953 14.3335 93.5283 13.9731C93.3701 13.6128 93.1152 13.3359 92.7637 13.1426C92.4121 12.9404 91.9419 12.8394 91.353 12.8394H87.4639L87.4902 9.80713H92.144L93.2251 11.02C94.5083 10.9673 95.5234 11.1475 96.2705 11.5605C97.0264 11.9736 97.5669 12.5186 97.8921 13.1953C98.2173 13.8721 98.3799 14.5796 98.3799 15.3179C98.3799 16.5747 98.1074 17.625 97.5625 18.4688C97.0264 19.3125 96.2222 19.9453 95.1499 20.3672C94.0776 20.7891 92.7505 21 91.1685 21ZM109.072 17.5327V6.73535H113.528V21H109.362L109.072 17.5327ZM109.494 14.6323L110.654 14.606C110.654 15.564 110.54 16.4517 110.311 17.269C110.083 18.0776 109.744 18.7808 109.296 19.3784C108.856 19.9761 108.312 20.4419 107.661 20.7759C107.02 21.1011 106.277 21.2637 105.433 21.2637C104.73 21.2637 104.084 21.167 103.495 20.9736C102.915 20.7715 102.414 20.4595 101.992 20.0376C101.57 19.6069 101.241 19.0576 101.003 18.3896C100.775 17.7129 100.661 16.9043 100.661 15.9639V6.73535H105.104V15.9902C105.104 16.3066 105.143 16.5791 105.222 16.8076C105.301 17.0361 105.416 17.2295 105.565 17.3877C105.714 17.5371 105.899 17.6514 106.119 17.7305C106.347 17.8008 106.606 17.8359 106.896 17.8359C107.564 17.8359 108.087 17.6953 108.465 17.4141C108.843 17.1328 109.107 16.7505 109.256 16.2671C109.415 15.7837 109.494 15.2388 109.494 14.6323ZM124.18 17.7305V0.75H128.649V21H124.642L124.18 17.7305ZM115.426 14.0391V13.7622C115.426 12.6812 115.545 11.6968 115.782 10.8091C116.02 9.9126 116.371 9.14355 116.837 8.50195C117.303 7.85156 117.883 7.35059 118.577 6.99902C119.271 6.64746 120.071 6.47168 120.977 6.47168C121.785 6.47168 122.493 6.66064 123.099 7.03857C123.706 7.40771 124.224 7.92627 124.655 8.59424C125.085 9.26221 125.437 10.0444 125.709 10.9409C125.982 11.8286 126.188 12.7866 126.329 13.8149V14.1445C126.188 15.1113 125.982 16.0254 125.709 16.8867C125.437 17.7393 125.085 18.4951 124.655 19.1543C124.224 19.8135 123.701 20.332 123.086 20.71C122.479 21.0791 121.768 21.2637 120.95 21.2637C120.045 21.2637 119.245 21.0835 118.551 20.7231C117.865 20.3628 117.29 19.8574 116.824 19.207C116.367 18.5566 116.02 17.792 115.782 16.9131C115.545 16.0342 115.426 15.0762 115.426 14.0391ZM119.869 13.7622V14.0391C119.869 14.5752 119.904 15.0718 119.975 15.5288C120.045 15.9858 120.164 16.3901 120.331 16.7417C120.506 17.0845 120.735 17.3525 121.016 17.5459C121.306 17.7393 121.662 17.8359 122.084 17.8359C122.655 17.8359 123.125 17.6997 123.495 17.4272C123.873 17.1548 124.149 16.7681 124.325 16.2671C124.51 15.7661 124.589 15.1772 124.562 14.5005V13.459C124.58 12.8789 124.541 12.3691 124.444 11.9297C124.347 11.4814 124.193 11.1079 123.982 10.8091C123.78 10.5103 123.521 10.2861 123.205 10.1367C122.897 9.97852 122.532 9.89941 122.11 9.89941C121.697 9.89941 121.346 9.99609 121.056 10.1895C120.774 10.3828 120.546 10.6553 120.37 11.0068C120.194 11.3496 120.067 11.7583 119.988 12.2329C119.909 12.6987 119.869 13.2085 119.869 13.7622ZM139.368 17.7305V0.75H143.837V21H139.829L139.368 17.7305ZM130.614 14.0391V13.7622C130.614 12.6812 130.732 11.6968 130.97 10.8091C131.207 9.9126 131.559 9.14355 132.024 8.50195C132.49 7.85156 133.07 7.35059 133.765 6.99902C134.459 6.64746 135.259 6.47168 136.164 6.47168C136.973 6.47168 137.68 6.66064 138.287 7.03857C138.893 7.40771 139.412 7.92627 139.842 8.59424C140.273 9.26221 140.625 10.0444 140.897 10.9409C141.169 11.8286 141.376 12.7866 141.517 13.8149V14.1445C141.376 15.1113 141.169 16.0254 140.897 16.8867C140.625 17.7393 140.273 18.4951 139.842 19.1543C139.412 19.8135 138.889 20.332 138.273 20.71C137.667 21.0791 136.955 21.2637 136.138 21.2637C135.232 21.2637 134.433 21.0835 133.738 20.7231C133.053 20.3628 132.477 19.8574 132.011 19.207C131.554 18.5566 131.207 17.792 130.97 16.9131C130.732 16.0342 130.614 15.0762 130.614 14.0391ZM135.057 13.7622V14.0391C135.057 14.5752 135.092 15.0718 135.162 15.5288C135.232 15.9858 135.351 16.3901 135.518 16.7417C135.694 17.0845 135.922 17.3525 136.204 17.5459C136.494 17.7393 136.85 17.8359 137.271 17.8359C137.843 17.8359 138.313 17.6997 138.682 17.4272C139.06 17.1548 139.337 16.7681 139.513 16.2671C139.697 15.7661 139.776 15.1772 139.75 14.5005V13.459C139.768 12.8789 139.728 12.3691 139.631 11.9297C139.535 11.4814 139.381 11.1079 139.17 10.8091C138.968 10.5103 138.708 10.2861 138.392 10.1367C138.084 9.97852 137.72 9.89941 137.298 9.89941C136.885 9.89941 136.533 9.99609 136.243 10.1895C135.962 10.3828 135.733 10.6553 135.558 11.0068C135.382 11.3496 135.254 11.7583 135.175 12.2329C135.096 12.6987 135.057 13.2085 135.057 13.7622ZM150.732 19.3257L154.423 6.73535H159.196L153.461 23.1226C153.338 23.4829 153.175 23.8696 152.973 24.2827C152.771 24.7046 152.494 25.1045 152.143 25.4824C151.791 25.8604 151.338 26.168 150.785 26.4053C150.24 26.6426 149.563 26.7612 148.754 26.7612C148.324 26.7612 148.007 26.7393 147.805 26.6953C147.612 26.6602 147.313 26.5942 146.909 26.4976V23.3203C147.023 23.3203 147.12 23.3203 147.199 23.3203C147.287 23.3203 147.383 23.3203 147.489 23.3203C147.963 23.3203 148.341 23.272 148.623 23.1753C148.913 23.0786 149.132 22.938 149.282 22.7534C149.44 22.5688 149.563 22.3447 149.651 22.0811L150.732 19.3257ZM149.796 6.73535L152.604 16.7153L153.092 21.4219H150.112L145.037 6.73535H149.796Z" fill="#F06F40"/>
</svg>
