<svg width="22" height="22" viewBox="0 0 22 22" fill="none" xmlns="http://www.w3.org/2000/svg">
<path d="M11 7.33331V11.9166H15.5833V10.0833H12.8333V7.33331H11Z" fill="white"/>
<path d="M19.5177 7.78889C19.1042 6.8081 18.504 5.91707 17.7504 5.16539C16.6096 4.02466 15.1596 3.24323 13.5795 2.91772C12.4828 2.6945 11.3524 2.6945 10.2557 2.91772C8.67416 3.24115 7.22289 4.02322 6.08304 5.16631C5.33127 5.91878 4.73126 6.80884 4.31571 7.78797C3.88589 8.8042 3.66517 9.89659 3.66671 11L3.66762 11.0229H1.83337L4.58337 14.6666L7.33337 11.0229H5.50096L5.50004 11C5.4974 9.72156 5.87905 8.47187 6.59546 7.41305C7.05757 6.72985 7.64591 6.14119 8.32887 5.67872C9.02365 5.21067 9.80298 4.8825 10.6233 4.71255C12.2903 4.36981 14.0251 4.70305 15.4465 5.639C16.8679 6.57496 17.8595 8.03702 18.2032 9.70381C18.3761 10.558 18.3761 11.4382 18.2032 12.2925C18.0355 13.1135 17.7071 13.8932 17.237 14.5869C17.0079 14.927 16.7448 15.2469 16.4542 15.5366C15.8686 16.1214 15.1762 16.5885 14.4146 16.9125C14.0267 17.0764 13.6236 17.2017 13.211 17.2865C12.3571 17.4593 11.4772 17.4593 10.6233 17.2865C9.80315 17.1183 9.02414 16.7903 8.33071 16.3212C7.98966 16.0908 7.67136 15.8283 7.38012 15.5375L6.08396 16.8336C6.84949 17.6002 7.75873 18.2082 8.75961 18.6229C9.76049 19.0375 10.8333 19.2506 11.9167 19.25C13.0195 19.2495 14.1111 19.0292 15.1278 18.6019C16.6015 17.9784 17.8622 16.9402 18.7569 15.6136C19.6776 14.2513 20.1687 12.6442 20.1667 11C20.169 9.89681 19.9482 8.80457 19.5177 7.78889Z" fill="white"/>
</svg>
