<svg width="23" height="23" viewBox="0 0 23 23" fill="none" xmlns="http://www.w3.org/2000/svg">
<path d="M3.83333 12.4583H9.58333C9.8375 12.4583 10.0813 12.3574 10.261 12.1776C10.4407 11.9979 10.5417 11.7542 10.5417 11.5V3.83333C10.5417 3.57917 10.4407 3.33541 10.261 3.15569C10.0813 2.97597 9.8375 2.875 9.58333 2.875H3.83333C3.57917 2.875 3.33541 2.97597 3.15569 3.15569C2.97597 3.33541 2.875 3.57917 2.875 3.83333V11.5C2.875 11.7542 2.97597 11.9979 3.15569 12.1776C3.33541 12.3574 3.57917 12.4583 3.83333 12.4583ZM2.875 19.1667C2.875 19.4208 2.97597 19.6646 3.15569 19.8443C3.33541 20.024 3.57917 20.125 3.83333 20.125H9.58333C9.8375 20.125 10.0813 20.024 10.261 19.8443C10.4407 19.6646 10.5417 19.4208 10.5417 19.1667V15.3333C10.5417 15.0792 10.4407 14.8354 10.261 14.6557C10.0813 14.476 9.8375 14.375 9.58333 14.375H3.83333C3.57917 14.375 3.33541 14.476 3.15569 14.6557C2.97597 14.8354 2.875 15.0792 2.875 15.3333V19.1667ZM12.4583 19.1667C12.4583 19.4208 12.5593 19.6646 12.739 19.8443C12.9187 20.024 13.1625 20.125 13.4167 20.125H19.1667C19.4208 20.125 19.6646 20.024 19.8443 19.8443C20.024 19.6646 20.125 19.4208 20.125 19.1667V12.4583C20.125 12.2042 20.024 11.9604 19.8443 11.7807C19.6646 11.601 19.4208 11.5 19.1667 11.5H13.4167C13.1625 11.5 12.9187 11.601 12.739 11.7807C12.5593 11.9604 12.4583 12.2042 12.4583 12.4583V19.1667ZM13.4167 9.58333H19.1667C19.4208 9.58333 19.6646 9.48237 19.8443 9.30264C20.024 9.12292 20.125 8.87917 20.125 8.625V3.83333C20.125 3.57917 20.024 3.33541 19.8443 3.15569C19.6646 2.97597 19.4208 2.875 19.1667 2.875H13.4167C13.1625 2.875 12.9187 2.97597 12.739 3.15569C12.5593 3.33541 12.4583 3.57917 12.4583 3.83333V8.625C12.4583 8.87917 12.5593 9.12292 12.739 9.30264C12.9187 9.48237 13.1625 9.58333 13.4167 9.58333Z" fill="white"/>
</svg>
