<svg width="33" height="33" viewBox="0 0 33 33" fill="none" xmlns="http://www.w3.org/2000/svg">
<path d="M10.3125 16.5C10.3125 16.2265 10.4211 15.9642 10.6145 15.7708C10.8079 15.5774 11.0702 15.4688 11.3438 15.4688H20.625V8.76562C20.625 6.70312 18.4471 5.15625 16.5 5.15625H6.70312C5.74617 5.15727 4.82871 5.53787 4.15204 6.21454C3.47537 6.89121 3.09477 7.80867 3.09375 8.76562V24.2344C3.09477 25.1913 3.47537 26.1088 4.15204 26.7855C4.82871 27.4621 5.74617 27.8427 6.70312 27.8438H17.0156C17.9726 27.8427 18.89 27.4621 19.5667 26.7855C20.2434 26.1088 20.624 25.1913 20.625 24.2344V17.5312H11.3438C11.0702 17.5312 10.8079 17.4226 10.6145 17.2292C10.4211 17.0358 10.3125 16.7735 10.3125 16.5Z" fill="white"/>
<path d="M29.604 15.771L24.4477 10.6148C24.2527 10.4296 23.9931 10.3278 23.7242 10.3313C23.4553 10.3347 23.1984 10.4431 23.0082 10.6332C22.8181 10.8234 22.7097 11.0803 22.7063 11.3492C22.7028 11.6181 22.8046 11.8778 22.9898 12.0727L26.3852 15.4688H20.625V17.5313H26.3852L22.9898 20.9273C22.89 21.0221 22.8102 21.1359 22.7551 21.2621C22.7 21.3882 22.6707 21.5241 22.6689 21.6617C22.6672 21.7994 22.693 21.936 22.7448 22.0635C22.7967 22.191 22.8735 22.3068 22.9709 22.4041C23.0682 22.5015 23.184 22.5783 23.3115 22.6302C23.439 22.682 23.5756 22.7079 23.7133 22.7061C23.8509 22.7043 23.9868 22.675 24.1129 22.6199C24.2391 22.5648 24.3529 22.485 24.4477 22.3852L29.604 17.229C29.7972 17.0356 29.9058 16.7734 29.9058 16.5C29.9058 16.2266 29.7972 15.9644 29.604 15.771Z" fill="white"/>
</svg>
