<svg width="18" height="18" viewBox="0 0 18 18" fill="none" xmlns="http://www.w3.org/2000/svg">
<g clip-path="url(#clip0_1_306)">
<path d="M4.5 0.5625C4.5 0.413316 4.44074 0.270242 4.33525 0.164752C4.22976 0.0592632 4.08668 0 3.9375 0C3.78832 0 3.64524 0.0592632 3.53975 0.164752C3.43426 0.270242 3.375 0.413316 3.375 0.5625V1.125H2.25C1.65326 1.125 1.08097 1.36205 0.65901 1.78401C0.237053 2.20597 0 2.77826 0 3.375L0 4.5H18V3.375C18 2.77826 17.7629 2.20597 17.341 1.78401C16.919 1.36205 16.3467 1.125 15.75 1.125H14.625V0.5625C14.625 0.413316 14.5657 0.270242 14.4602 0.164752C14.3548 0.0592632 14.2117 0 14.0625 0C13.9133 0 13.7702 0.0592632 13.6648 0.164752C13.5593 0.270242 13.5 0.413316 13.5 0.5625V1.125H4.5V0.5625ZM18 15.75V5.625H0V15.75C0 16.3467 0.237053 16.919 0.65901 17.341C1.08097 17.7629 1.65326 18 2.25 18H15.75C16.3467 18 16.919 17.7629 17.341 17.341C17.7629 16.919 18 16.3467 18 15.75ZM12.2108 9.96075L8.83575 13.3358C8.7835 13.3881 8.72143 13.4297 8.65309 13.4581C8.58475 13.4864 8.51149 13.501 8.4375 13.501C8.36351 13.501 8.29025 13.4864 8.22191 13.4581C8.15357 13.4297 8.0915 13.3881 8.03925 13.3358L6.35175 11.6483C6.24613 11.5426 6.18679 11.3994 6.18679 11.25C6.18679 11.1006 6.24613 10.9574 6.35175 10.8517C6.45737 10.7461 6.60063 10.6868 6.75 10.6868C6.89937 10.6868 7.04263 10.7461 7.14825 10.8517L8.4375 12.1421L11.4142 9.16425C11.5199 9.05863 11.6631 8.99929 11.8125 8.99929C11.9619 8.99929 12.1051 9.05863 12.2108 9.16425C12.3164 9.26987 12.3757 9.41313 12.3757 9.5625C12.3757 9.71187 12.3164 9.85513 12.2108 9.96075Z" fill="white"/>
</g>
<defs>
<clipPath id="clip0_1_306">
<rect width="18" height="18" fill="white"/>
</clipPath>
</defs>
</svg>
